<?xml version="1.0" encoding="UTF-8"?> <svg xmlns="http://www.w3.org/2000/svg" id="Layer_3" height="512px" viewBox="0 0 64 64" width="512px"> <g> <path d="m14 23h2v2h-2z" data-original="#000000" class="active-path" data-old_color="#000000" fill="#FF0000"></path> <path d="m22 23h2v2h-2z" data-original="#000000" class="active-path" data-old_color="#000000" fill="#FF0000"></path> <path d="m2 63h34c.552 0 1-.447 1-1v-15.172c0-2.092-.814-4.058-2.293-5.535-1.479-1.479-3.445-2.293-5.536-2.293h-5.171c-.551 0-1-.448-1-1v-1.764c2.849-1.118 5.118-3.387 6.236-6.236h.764c2.206 0 4-1.794 4-4 0-.997-.38-1.899-.986-2.6l.218-.218c1.785-1.785 2.768-4.158 2.768-6.682s-.983-4.897-2.768-6.682c-2.462-2.462-5.735-3.818-9.217-3.818h-10.03c-3.482 0-6.755 1.356-9.217 3.818-1.785 1.785-2.768 4.158-2.768 6.682s.983 4.897 2.768 6.682l.218.218c-.606.701-.986 1.603-.986 2.6 0 2.206 1.794 4 4 4h.764c1.118 2.849 3.387 5.118 6.236 6.236v1.764c0 .552-.449 1-1 1h-5.171c-2.091 0-4.057.814-5.536 2.293-1.479 1.478-2.293 3.443-2.293 5.535v15.172c0 .553.448 1 1 1zm31.293-20.293c1.101 1.101 1.707 2.564 1.707 4.121v14.172h-2v-7c0-.266-.105-.52-.293-.707-2.391-2.391-3.707-5.569-3.707-8.95v-3.343h.171c1.557 0 3.021.606 4.122 1.707zm-3.293-14.707h-.191c.12-.65.191-1.316.191-2v-2c1.103 0 2 .897 2 2s-.897 2-2 2zm-22 0c-1.103 0-2-.897-2-2s.897-2 2-2v2c0 .684.071 1.35.191 2zm.498-12.865c-.308.179-.498.509-.498.865v6c-.472 0-.918.097-1.339.247l-.479-.479c-1.407-1.407-2.182-3.278-2.182-5.268s.775-3.861 2.182-5.268c2.085-2.084 4.856-3.232 7.803-3.232h10.029c2.948 0 5.719 1.148 7.803 3.232 1.408 1.407 2.183 3.278 2.183 5.268s-.775 3.861-2.182 5.268l-.479.479c-.421-.15-.867-.247-1.339-.247v-4c0-.431-.275-.812-.684-.949l-6-2c-.306-.101-.64-.051-.9.138-.262.188-.416.49-.416.811v2.277l-5.504-3.145c-.309-.176-.689-.175-.998.003-.308.179-.498.509-.498.865v2.277l-5.504-3.145c-.308-.176-.688-.175-.998.003zm1.502 10.865v-8.277l5.504 3.145c.31.177.69.177.998-.003.308-.179.498-.509.498-.865v-2.277l5.504 3.145c.31.177.69.177.998-.003.308-.179.498-.509.498-.865v-2.613l4 1.333v7.28c0 4.962-4.038 9-9 9s-9-4.038-9-9zm7 12v-1.191c.65.12 1.316.191 2 .191s1.35-.071 2-.191v1.191c0 1.302.839 2.402 2 2.816v.184c0 2.206-1.794 4-4 4s-4-1.794-4-4v-.184c1.161-.414 2-1.514 2-2.816zm2 9c3.309 0 6-2.691 6-6h2v3.343c0 3.774 1.417 7.331 4 10.063v6.594h-24v-6.594c2.583-2.732 4-6.289 4-10.063v-3.343h2c0 3.309 2.691 6 6 6zm-16-.172c0-1.557.606-3.021 1.707-4.121 1.101-1.101 2.565-1.707 4.122-1.707h.171v3.343c0 3.381-1.316 6.56-3.707 8.95-.188.187-.293.441-.293.707v7h-2z" data-original="#000000" class="active-path" data-old_color="#000000" fill="#FF0000"></path> <path d="m22 30c0-1.654-1.346-3-3-3s-3 1.346-3 3 1.346 3 3 3 3-1.346 3-3zm-4 0c0-.551.449-1 1-1s1 .449 1 1-.449 1-1 1-1-.449-1-1z" data-original="#000000" class="active-path" data-old_color="#000000" fill="#FF0000"></path> <path d="m47 16v5h-1c-.552 0-1 .448-1 1v11h-5c-.552 0-1 .447-1 1v6c0 .553.448 1 1 1h5v1c0 1.654 1.346 3 3 3h6c1.654 0 3-1.346 3-3v-20c0-.552-.448-1-1-1h-1v-5c0-.552-.448-1-1-1h-6c-.552 0-1 .448-1 1zm2 19v4h-4v-4zm-8 0h2v4h-2zm13 8h-6c-.551 0-1-.448-1-1v-1h3c.552 0 1-.447 1-1v-6c0-.553-.448-1-1-1h-3v-10h8v2h-3c-.552 0-1 .448-1 1v4c0 .552.448 1 1 1h3v11c0 .552-.449 1-1 1zm1-16v2h-2v-2zm-2-10v4h-4v-4z" data-original="#000000" class="active-path" data-old_color="#000000" fill="#FF0000"></path> <path d="m59.998 5.126c.001-.042.002-.084.002-.126 0-2.206-1.794-4-4-4-1.218 0-2.351.565-3.097 1.484-.577-.316-1.226-.484-1.903-.484-2.206 0-4 1.794-4 4h2c0-1.103.897-2 2-2 .555 0 1.074.229 1.46.647.236.254.588.368.929.3s.622-.308.743-.635c.289-.785 1.04-1.312 1.868-1.312 1.103 0 2 .897 2 2 0 .216-.042.438-.129.678-.115.317-.062.67.139.939.201.27.525.423.862.399.025 0 .103-.013.128-.016 1.103 0 2 .897 2 2s-.897 2-2 2v2c2.206 0 4-1.794 4-4 0-1.861-1.278-3.43-3.002-3.874z" data-original="#000000" class="active-path" data-old_color="#000000" fill="#FF0000"></path> <path d="m53.379 9.5h4.243v2h-4.243z" transform="matrix(.707 -.707 .707 .707 8.831 42.32)" data-original="#000000" class="active-path" data-old_color="#000000" fill="#FF0000"></path> <path d="m50.5 6.938h2v4.123h-2z" transform="matrix(.97 -.243 .243 .97 -.645 12.766)" data-original="#000000" class="active-path" data-old_color="#000000" fill="#FF0000"></path> </g> </svg> 